<?xml version="1.0" encoding="UTF-8"?>
<svg width="24px" height="48px" viewBox="0 0 24 48" version="1.1" xmlns="http://www.w3.org/2000/svg" xmlns:xlink="http://www.w3.org/1999/xlink">
    <!-- Generator: Sketch 49 (51002) - http://www.bohemiancoding.com/sketch -->
    <title>dribbble</title>
    <desc>Created with Sketch.</desc>
    <defs>
        <rect id="path-1" x="768" y="352" width="376" height="376" rx="8"></rect>
        <filter x="-17.8%" y="-10.9%" width="135.6%" height="135.6%" filterUnits="objectBoundingBox" id="filter-3">
            <feOffset dx="0" dy="26" in="SourceAlpha" result="shadowOffsetOuter1"></feOffset>
            <feGaussianBlur stdDeviation="18" in="shadowOffsetOuter1" result="shadowBlurOuter1"></feGaussianBlur>
            <feColorMatrix values="0 0 0 0 0.556862745   0 0 0 0 0.556862745   0 0 0 0 0.576470588  0 0 0 0.196133379 0" type="matrix" in="shadowBlurOuter1"></feColorMatrix>
        </filter>
    </defs>
    <g id="Page-1" stroke="none" stroke-width="1" fill="none" fill-rule="evenodd">
        <g id="Apple-TV" transform="translate(-792.000000, -648.000000)">
            <mask id="mask-2" fill="white">
                <use xlink:href="#path-1"></use>
            </mask>
            <g id="Mask">
                <use fill="black" fill-opacity="1" filter="url(#filter-3)" xlink:href="#path-1"></use>
                <use fill="#FFFFFF" fill-rule="evenodd" xlink:href="#path-1"></use>
            </g>
            <g id="Group-2" transform="translate(791.000000, 376.000000)">
                <g id="*Group-3">
                    <g id="text">
                        <g id="icon" transform="translate(1.000000, 272.000000)">
                            <g id="Group">
                                <g id="dribbble">
                                    <g>
                                        <rect id="Rectangle" fill="#8E8E93" x="0" y="0" width="24" height="24" rx="12"></rect>
                                        <g id="DESIGN_Dribbble" transform="translate(5.000000, 5.000000)" fill="#FFFFFF">
                                            <path d="M7.0293603,14 C3.15341241,14 0,10.7563679 0,6.91230799 C0,3.06863698 3.15341241,0 7.0293603,0 C10.9053082,0 14,3.06863698 14,6.91230799 C14,10.7563679 10.9053082,14 7.0293603,14 Z M12.9574178,7.86700369 C12.7520902,7.80244993 11.0989695,7.31363018 9.21757729,7.61228855 C10.003111,9.75228466 10.3223799,11.4952362 10.3842115,11.8576706 C11.7308964,10.9543068 12.6898697,9.52362434 12.9574178,7.86700369 Z M9.37468404,12.4024888 C9.28524208,11.8802255 8.93680731,10.0594983 8.09371962,7.88722535 C8.08049776,7.89189189 8.06727591,7.89616955 8.05405405,7.90083609 C4.66770367,9.07097025 3.45207078,11.3999611 3.34396267,11.6188995 C4.3620455,12.4063776 5.6414544,13.0503597 7.0293603,13.0503597 C7.86117052,13.0503597 8.65370406,12.7069804 9.37468404,12.4024888 Z M2.56892864,10.902586 C2.70464709,10.6719813 4.35271242,7.96616761 7.44934863,6.97375073 C7.52751312,6.94847365 7.60645538,6.92475209 7.68578651,6.90297492 C7.53490181,6.56465098 7.37079526,6.22554929 7.19891114,5.89228077 C4.20066109,6.78203383 1.29107525,6.74509041 1.02819366,6.73964612 C1.02624927,6.79992222 1.02508264,6.86058721 1.02508264,6.92164107 C1.02508264,8.45109858 1.60995528,9.84717091 2.56892864,10.902586 Z M1.15224577,5.70211939 C1.42057165,5.70561929 3.89422516,5.71650787 6.7027027,4.97686175 C5.70795256,3.2226327 4.57631732,1.69006416 4.41804394,1.47501458 C2.73809061,2.26054832 1.54112386,3.8545596 1.15224577,5.70211939 Z M5.62239938,1.13280187 C5.78845032,1.35329574 6.87886448,2.82597706 7.86272604,4.61870504 C9.99766673,3.82500486 10.96014,2.56192884 11.0682481,2.40948863 C10.0077776,1.4765701 8.55492903,0.909196967 7.0293603,0.909196967 C6.5448182,0.909196967 6.07388684,1.02508264 5.62239938,1.13280187 Z M11.7355629,3.09819172 C11.6091775,3.26774256 10.5440404,4.6050943 8.32432432,5.50418044 C8.46393156,5.78767256 8.5980945,6.0762201 8.72253549,6.36632316 C8.76686759,6.46937585 8.80964418,6.57165079 8.85203189,6.67353685 C10.8496986,6.42465487 12.8936418,6.82364379 13.0915808,6.86525374 C13.0783589,5.45984834 12.5720397,4.11121913 11.7355629,3.09819172 Z" id="Shape"></path>
                                        </g>
                                    </g>
                                    <g transform="translate(0.000000, 24.000000)">
                                        <rect id="Rectangle" fill="#EA5891" x="0" y="0" width="24" height="24" rx="12"></rect>
                                        <g id="DESIGN_Dribbble" transform="translate(5.000000, 5.000000)" fill="#FFFFFF">
                                            <path d="M7.0293603,14 C3.15341241,14 0,10.7563679 0,6.91230799 C0,3.06863698 3.15341241,0 7.0293603,0 C10.9053082,0 14,3.06863698 14,6.91230799 C14,10.7563679 10.9053082,14 7.0293603,14 Z M12.9574178,7.86700369 C12.7520902,7.80244993 11.0989695,7.31363018 9.21757729,7.61228855 C10.003111,9.75228466 10.3223799,11.4952362 10.3842115,11.8576706 C11.7308964,10.9543068 12.6898697,9.52362434 12.9574178,7.86700369 Z M9.37468404,12.4024888 C9.28524208,11.8802255 8.93680731,10.0594983 8.09371962,7.88722535 C8.08049776,7.89189189 8.06727591,7.89616955 8.05405405,7.90083609 C4.66770367,9.07097025 3.45207078,11.3999611 3.34396267,11.6188995 C4.3620455,12.4063776 5.6414544,13.0503597 7.0293603,13.0503597 C7.86117052,13.0503597 8.65370406,12.7069804 9.37468404,12.4024888 Z M2.56892864,10.902586 C2.70464709,10.6719813 4.35271242,7.96616761 7.44934863,6.97375073 C7.52751312,6.94847365 7.60645538,6.92475209 7.68578651,6.90297492 C7.53490181,6.56465098 7.37079526,6.22554929 7.19891114,5.89228077 C4.20066109,6.78203383 1.29107525,6.74509041 1.02819366,6.73964612 C1.02624927,6.79992222 1.02508264,6.86058721 1.02508264,6.92164107 C1.02508264,8.45109858 1.60995528,9.84717091 2.56892864,10.902586 Z M1.15224577,5.70211939 C1.42057165,5.70561929 3.89422516,5.71650787 6.7027027,4.97686175 C5.70795256,3.2226327 4.57631732,1.69006416 4.41804394,1.47501458 C2.73809061,2.26054832 1.54112386,3.8545596 1.15224577,5.70211939 Z M5.62239938,1.13280187 C5.78845032,1.35329574 6.87886448,2.82597706 7.86272604,4.61870504 C9.99766673,3.82500486 10.96014,2.56192884 11.0682481,2.40948863 C10.0077776,1.4765701 8.55492903,0.909196967 7.0293603,0.909196967 C6.5448182,0.909196967 6.07388684,1.02508264 5.62239938,1.13280187 Z M11.7355629,3.09819172 C11.6091775,3.26774256 10.5440404,4.6050943 8.32432432,5.50418044 C8.46393156,5.78767256 8.5980945,6.0762201 8.72253549,6.36632316 C8.76686759,6.46937585 8.80964418,6.57165079 8.85203189,6.67353685 C10.8496986,6.42465487 12.8936418,6.82364379 13.0915808,6.86525374 C13.0783589,5.45984834 12.5720397,4.11121913 11.7355629,3.09819172 Z" id="Shape"></path>
                                        </g>
                                    </g>
                                </g>
                            </g>
                        </g>
                    </g>
                </g>
            </g>
        </g>
    </g>
</svg>