<?xml version="1.0" encoding="UTF-8"?>
<svg width="24px" height="48px" viewBox="0 0 24 48" version="1.1" xmlns="http://www.w3.org/2000/svg" xmlns:xlink="http://www.w3.org/1999/xlink">
    <!-- Generator: Sketch 49 (51002) - http://www.bohemiancoding.com/sketch -->
    <title>gmail</title>
    <desc>Created with Sketch.</desc>
    <defs>
        <rect id="path-1" x="768" y="352" width="376" height="376" rx="8"></rect>
        <filter x="-17.8%" y="-10.9%" width="135.6%" height="135.6%" filterUnits="objectBoundingBox" id="filter-3">
            <feOffset dx="0" dy="26" in="SourceAlpha" result="shadowOffsetOuter1"></feOffset>
            <feGaussianBlur stdDeviation="18" in="shadowOffsetOuter1" result="shadowBlurOuter1"></feGaussianBlur>
            <feColorMatrix values="0 0 0 0 0.556862745   0 0 0 0 0.556862745   0 0 0 0 0.576470588  0 0 0 0.196133379 0" type="matrix" in="shadowBlurOuter1"></feColorMatrix>
        </filter>
    </defs>
    <g id="Page-1" stroke="none" stroke-width="1" fill="none" fill-rule="evenodd">
        <g id="Apple-TV" transform="translate(-1032.000000, -648.000000)">
            <mask id="mask-2" fill="white">
                <use xlink:href="#path-1"></use>
            </mask>
            <g id="Mask">
                <use fill="black" fill-opacity="1" filter="url(#filter-3)" xlink:href="#path-1"></use>
                <use fill="#FFFFFF" fill-rule="evenodd" xlink:href="#path-1"></use>
            </g>
            <g id="Group-2" transform="translate(791.000000, 376.000000)">
                <g id="*Group-3">
                    <g id="text">
                        <g id="icon" transform="translate(1.000000, 272.000000)">
                            <g id="Group">
                                <g id="gmail" transform="translate(240.000000, 0.000000)">
                                    <g>
                                        <rect id="Rectangle" fill="#8E8E93" x="0" y="0" width="24" height="24" rx="12"></rect>
                                        <path d="M18.8892581,7.48166554 C18.8769077,7.45861146 18.8629106,7.43596907 18.8485018,7.41415003 C18.8468551,7.41167995 18.8452083,7.40838651 18.8435616,7.40550475 C18.8410915,7.40262299 18.8386215,7.39974123 18.8365631,7.39644779 C18.823801,7.37792219 18.8102155,7.35980827 18.7962184,7.34251772 C18.7937483,7.33922428 18.7912783,7.33593084 18.7888082,7.33304908 C18.772341,7.31328844 18.7554621,7.29435116 18.7373482,7.27623725 C18.7352898,7.27417885 18.7336431,7.27170877 18.7315847,7.26965037 C18.7282912,7.26635693 18.7245861,7.26388685 18.7217044,7.26059341 C18.7068839,7.24618461 18.6916517,7.23259917 18.6760079,7.21901373 C18.6714794,7.21530861 18.6669509,7.21119181 18.6620108,7.20707501 C18.6426618,7.1910195 18.6224895,7.17619902 18.6014938,7.16179022 C18.5994354,7.1601435 18.5977887,7.15849678 18.5957303,7.15726174 C18.5916135,7.15479166 18.5874967,7.15232158 18.5833799,7.1498515 C18.5669127,7.13914782 18.5500338,7.12844414 18.5323316,7.11897551 C18.5261564,7.11527039 18.5195695,7.11156527 18.5129826,7.10786015 C18.4907519,7.09592143 18.4681095,7.08480607 18.4450554,7.07492575 C18.442997,7.07410239 18.441762,7.07327903 18.4397036,7.07245567 C18.4355868,7.07080895 18.4306466,7.06916223 18.4265298,7.06751551 C18.4075926,7.05969359 18.3886553,7.05269503 18.3693063,7.04651983 C18.3614844,7.04404975 18.3536625,7.04157967 18.3458406,7.0391096 C18.3215514,7.03169936 18.296439,7.02511248 18.2709148,7.01976064 C18.2696798,7.01934896 18.2688564,7.01893728 18.2676214,7.01893728 C18.2635046,7.01811392 18.2593878,7.01770224 18.255271,7.01687888 C18.2338636,7.01276208 18.2120446,7.00946864 18.1902255,7.00699856 C18.1815803,7.0061752 18.172935,7.00494016 18.1642897,7.0041168 C18.1395889,7.0020584 18.1144764,7.00082336 18.089364,7.00041168 C18.0868939,7.00041168 18.0848355,7 18.0827771,7 L18.0411974,7 L18.0407857,7.00041168 L17.4492016,7.43349899 L17.4055636,7.46561002 L12.047549,11.3885082 L6.59443644,7.39562443 L6.05431235,7.00041168 L6.05431235,7 L5.91722292,7 C5.52406857,7 5.19019614,7.24824301 5.05928191,7.59652425 C5.02181904,7.69738583 5,7.80606934 5,7.92010468 L5,16.2623872 C5,16.2632105 5,16.2644456 5,16.2652689 C5.00041168,16.2924398 5.00164672,16.319199 5.0041168,16.3455465 C5.00494016,16.3537801 5.00576352,16.3620137 5.00699856,16.3702473 C5.00946864,16.3908313 5.0123504,16.4110036 5.01605552,16.4311759 C5.01770224,16.4385862 5.0185256,16.4464081 5.02017232,16.45423 C5.02511248,16.4768724 5.030876,16.4995148 5.03746288,16.5217455 C5.03787456,16.5225689 5.03787456,16.5233922 5.03828624,16.5242156 C5.04281471,16.5390361 5.04775487,16.5530332 5.05269503,16.5670303 C5.05681183,16.578969 5.06092863,16.5913194 5.06586879,16.6028465 C5.07080895,16.6160202 5.07657247,16.6287823 5.08233599,16.6419561 C5.08809951,16.6543065 5.09386303,16.6666569 5.10044991,16.6785956 C5.10621343,16.6905343 5.11238863,16.7020613 5.11856383,16.7135884 C5.12638574,16.7271738 5.13461934,16.7403476 5.14285294,16.7535213 C5.14902814,16.76299 5.15479166,16.7728703 5.16096686,16.7823389 C5.17578734,16.8037463 5.1910195,16.8243303 5.20748669,16.8445026 C5.21242685,16.8506778 5.21777869,16.8560296 5.22271885,16.8617932 C5.23548093,16.8766136 5.24865469,16.8914341 5.26224013,16.9050196 C5.26923869,16.9124298 5.27664893,16.9194284 5.28405916,16.9268386 C5.29640956,16.9383656 5.30917164,16.9498927 5.32193372,16.961008 C5.33016732,16.9680066 5.33840092,16.9750051 5.34663452,16.981592 C5.36021995,16.9922957 5.37421707,17.0025877 5.38821419,17.0128797 C5.39644779,17.0186432 5.40468139,17.0244067 5.41291499,17.0297586 C5.43020555,17.0412856 5.44790778,17.0519893 5.46561002,17.0622813 C5.47137354,17.0655747 5.47713706,17.0688682 5.48290058,17.0721616 C5.50636634,17.0849237 5.53065545,17.0964507 5.55535625,17.1071544 C5.56358985,17.1108595 5.57141177,17.1133296 5.57964537,17.116623 C5.59693592,17.1236216 5.61463816,17.1302085 5.63275208,17.1363837 C5.64304408,17.1396771 5.65374776,17.1425589 5.66403976,17.1454406 C5.68050695,17.1503808 5.69697415,17.1544976 5.71385303,17.1582027 C5.72496839,17.1610845 5.73608375,17.1631429 5.74761079,17.165613 C5.76490134,17.1689064 5.7821919,17.1713765 5.79989414,17.1734349 C5.81059782,17.1746699 5.8213015,17.1767283 5.83200518,17.1775517 C5.85629429,17.1796101 5.88058341,17.1808451 5.90528421,17.1812568 C5.90940101,17.1812568 5.91310613,17.1816685 5.91722292,17.1816685 L6.59443644,17.1816685 L6.59443644,9.58576175 L10.5523275,12.4835769 L11.8532361,13.4362043 L11.8664099,13.4460846 L12.0928338,13.6119916 L12.0932455,13.6119916 L13.0145852,12.9372482 L13.5888788,12.516923 L16.5175699,10.3724821 L17.4055636,9.7224395 L17.4055636,17.1816685 L18.0827771,17.1816685 C18.0868939,17.1816685 18.0910107,17.1812568 18.0951275,17.1812568 C18.1194166,17.1808451 18.1437057,17.1796101 18.1679948,17.1775517 C18.1745817,17.1767283 18.1815803,17.175905 18.1881671,17.1750816 C18.1910489,17.1746699 18.193519,17.1742582 18.1959891,17.1738466 C18.1976358,17.1738466 18.1988708,17.1734349 18.2001059,17.1734349 C18.2178081,17.1713765 18.2350987,17.1689064 18.2523892,17.165613 C18.2532126,17.1652013 18.2536243,17.1652013 18.2544476,17.1652013 C18.2593878,17.1639662 18.2647396,17.1627312 18.2696798,17.1619078 C18.2754433,17.1606728 18.2807951,17.1594378 18.286147,17.1582027 C18.3030258,17.1544976 18.319493,17.1503808 18.3355486,17.1454406 C18.3462522,17.1425589 18.3569559,17.1396771 18.3672479,17.1363837 C18.3853618,17.1302085 18.4030641,17.1236216 18.4203546,17.116623 C18.4215897,17.1162114 18.422413,17.1157997 18.4236481,17.115388 C18.430235,17.1125062 18.4372335,17.1104478 18.4438204,17.1075661 C18.4438204,17.1075661 18.4442321,17.1075661 18.4446437,17.1071544 C18.4693445,17.0964507 18.4936337,17.0849237 18.5170994,17.0721616 C18.5232746,17.0688682 18.5286265,17.0651631 18.5348017,17.0618696 C18.5525039,17.0515776 18.5702061,17.0412856 18.587085,17.0297586 C18.5957303,17.0244067 18.6035522,17.0182315 18.6117858,17.012468 C18.6257829,17.0025877 18.63978,16.9922957 18.6533655,16.981592 C18.6533655,16.981592 18.6533655,16.9811803 18.6537772,16.9811803 C18.6615991,16.9745935 18.6698327,16.9680066 18.6776546,16.9614197 C18.6776546,16.9614197 18.6780663,16.961008 18.6780663,16.961008 C18.6908284,16.9498927 18.7031788,16.9387773 18.7155292,16.9268386 C18.7192343,16.9235452 18.7225277,16.91984 18.7262328,16.9165466 C18.7303496,16.9128415 18.7340548,16.9091364 18.7377599,16.9054312 C18.7381716,16.9050196 18.7381716,16.9050196 18.7381716,16.9050196 C18.7513453,16.8914341 18.7641074,16.8770253 18.7764578,16.8626165 C18.7772811,16.8613815 18.7785162,16.8605581 18.7793395,16.8593231 C18.783868,16.8543829 18.7883965,16.8498544 18.7925133,16.8445026 C18.7925133,16.8445026 18.7925133,16.8445026 18.7925133,16.8445026 C18.8089805,16.8243303 18.8242127,16.8037463 18.8390331,16.7823389 C18.8390331,16.7823389 18.8390331,16.7819273 18.8390331,16.7819273 C18.84562,16.7728703 18.8509719,16.7634017 18.8571471,16.753933 C18.8571471,16.7535213 18.8575587,16.7531097 18.8575587,16.752698 C18.8657923,16.7399359 18.8736143,16.7271738 18.8810245,16.7140001 C18.8814362,16.7140001 18.8814362,16.7135884 18.8814362,16.7135884 C18.8826712,16.71153 18.8834946,16.7098833 18.8843179,16.7082365 C18.8896698,16.6983562 18.8950216,16.6884759 18.8999618,16.6781839 C18.906137,16.6662452 18.9119005,16.6543065 18.9172523,16.6423677 C18.9234275,16.629194 18.929191,16.6160202 18.9345429,16.6024348 C18.9390714,16.5913194 18.9427765,16.5797924 18.9468933,16.5678537 C18.94854,16.5637369 18.949775,16.5592084 18.9514218,16.5546799 C18.9551269,16.5447996 18.9584203,16.5349193 18.9617138,16.525039 C18.9617138,16.5246273 18.9617138,16.5242156 18.9617138,16.5242156 C18.9621254,16.5233922 18.9625371,16.5225689 18.9625371,16.5217455 C18.969124,16.4995148 18.9748875,16.4772841 18.9798277,16.4546417 C18.9798277,16.45423 18.9798277,16.4538183 18.9798277,16.4534067 C18.9814744,16.4464081 18.9822978,16.4394095 18.9835328,16.4328227 C18.9839445,16.4319993 18.9839445,16.4311759 18.9839445,16.4303526 C18.9876496,16.4105919 18.990943,16.3908313 18.9930014,16.370659 C18.9942365,16.3620137 18.9950598,16.3537801 18.9958832,16.3451348 C18.9983533,16.319199 18.9995883,16.2932632 19,16.2669156 C19,16.2652689 19,16.2636222 19,16.2623872 L19,8.55491516 L19,8.20334049 L19,7.92010468 C19,7.76119622 18.960067,7.6117564 18.8892581,7.48166554 Z" id="Shape" fill="#FFFFFF"></path>
                                    </g>
                                    <g transform="translate(0.000000, 24.000000)">
                                        <rect id="Rectangle" fill="#DD4B39" x="0" y="0" width="24" height="24" rx="12"></rect>
                                        <path d="M18.8892581,7.48166554 C18.8769077,7.45861146 18.8629106,7.43596907 18.8485018,7.41415003 C18.8468551,7.41167995 18.8452083,7.40838651 18.8435616,7.40550475 C18.8410915,7.40262299 18.8386215,7.39974123 18.8365631,7.39644779 C18.823801,7.37792219 18.8102155,7.35980827 18.7962184,7.34251772 C18.7937483,7.33922428 18.7912783,7.33593084 18.7888082,7.33304908 C18.772341,7.31328844 18.7554621,7.29435116 18.7373482,7.27623725 C18.7352898,7.27417885 18.7336431,7.27170877 18.7315847,7.26965037 C18.7282912,7.26635693 18.7245861,7.26388685 18.7217044,7.26059341 C18.7068839,7.24618461 18.6916517,7.23259917 18.6760079,7.21901373 C18.6714794,7.21530861 18.6669509,7.21119181 18.6620108,7.20707501 C18.6426618,7.1910195 18.6224895,7.17619902 18.6014938,7.16179022 C18.5994354,7.1601435 18.5977887,7.15849678 18.5957303,7.15726174 C18.5916135,7.15479166 18.5874967,7.15232158 18.5833799,7.1498515 C18.5669127,7.13914782 18.5500338,7.12844414 18.5323316,7.11897551 C18.5261564,7.11527039 18.5195695,7.11156527 18.5129826,7.10786015 C18.4907519,7.09592143 18.4681095,7.08480607 18.4450554,7.07492575 C18.442997,7.07410239 18.441762,7.07327903 18.4397036,7.07245567 C18.4355868,7.07080895 18.4306466,7.06916223 18.4265298,7.06751551 C18.4075926,7.05969359 18.3886553,7.05269503 18.3693063,7.04651983 C18.3614844,7.04404975 18.3536625,7.04157967 18.3458406,7.0391096 C18.3215514,7.03169936 18.296439,7.02511248 18.2709148,7.01976064 C18.2696798,7.01934896 18.2688564,7.01893728 18.2676214,7.01893728 C18.2635046,7.01811392 18.2593878,7.01770224 18.255271,7.01687888 C18.2338636,7.01276208 18.2120446,7.00946864 18.1902255,7.00699856 C18.1815803,7.0061752 18.172935,7.00494016 18.1642897,7.0041168 C18.1395889,7.0020584 18.1144764,7.00082336 18.089364,7.00041168 C18.0868939,7.00041168 18.0848355,7 18.0827771,7 L18.0411974,7 L18.0407857,7.00041168 L17.4492016,7.43349899 L17.4055636,7.46561002 L12.047549,11.3885082 L6.59443644,7.39562443 L6.05431235,7.00041168 L6.05431235,7 L5.91722292,7 C5.52406857,7 5.19019614,7.24824301 5.05928191,7.59652425 C5.02181904,7.69738583 5,7.80606934 5,7.92010468 L5,16.2623872 C5,16.2632105 5,16.2644456 5,16.2652689 C5.00041168,16.2924398 5.00164672,16.319199 5.0041168,16.3455465 C5.00494016,16.3537801 5.00576352,16.3620137 5.00699856,16.3702473 C5.00946864,16.3908313 5.0123504,16.4110036 5.01605552,16.4311759 C5.01770224,16.4385862 5.0185256,16.4464081 5.02017232,16.45423 C5.02511248,16.4768724 5.030876,16.4995148 5.03746288,16.5217455 C5.03787456,16.5225689 5.03787456,16.5233922 5.03828624,16.5242156 C5.04281471,16.5390361 5.04775487,16.5530332 5.05269503,16.5670303 C5.05681183,16.578969 5.06092863,16.5913194 5.06586879,16.6028465 C5.07080895,16.6160202 5.07657247,16.6287823 5.08233599,16.6419561 C5.08809951,16.6543065 5.09386303,16.6666569 5.10044991,16.6785956 C5.10621343,16.6905343 5.11238863,16.7020613 5.11856383,16.7135884 C5.12638574,16.7271738 5.13461934,16.7403476 5.14285294,16.7535213 C5.14902814,16.76299 5.15479166,16.7728703 5.16096686,16.7823389 C5.17578734,16.8037463 5.1910195,16.8243303 5.20748669,16.8445026 C5.21242685,16.8506778 5.21777869,16.8560296 5.22271885,16.8617932 C5.23548093,16.8766136 5.24865469,16.8914341 5.26224013,16.9050196 C5.26923869,16.9124298 5.27664893,16.9194284 5.28405916,16.9268386 C5.29640956,16.9383656 5.30917164,16.9498927 5.32193372,16.961008 C5.33016732,16.9680066 5.33840092,16.9750051 5.34663452,16.981592 C5.36021995,16.9922957 5.37421707,17.0025877 5.38821419,17.0128797 C5.39644779,17.0186432 5.40468139,17.0244067 5.41291499,17.0297586 C5.43020555,17.0412856 5.44790778,17.0519893 5.46561002,17.0622813 C5.47137354,17.0655747 5.47713706,17.0688682 5.48290058,17.0721616 C5.50636634,17.0849237 5.53065545,17.0964507 5.55535625,17.1071544 C5.56358985,17.1108595 5.57141177,17.1133296 5.57964537,17.116623 C5.59693592,17.1236216 5.61463816,17.1302085 5.63275208,17.1363837 C5.64304408,17.1396771 5.65374776,17.1425589 5.66403976,17.1454406 C5.68050695,17.1503808 5.69697415,17.1544976 5.71385303,17.1582027 C5.72496839,17.1610845 5.73608375,17.1631429 5.74761079,17.165613 C5.76490134,17.1689064 5.7821919,17.1713765 5.79989414,17.1734349 C5.81059782,17.1746699 5.8213015,17.1767283 5.83200518,17.1775517 C5.85629429,17.1796101 5.88058341,17.1808451 5.90528421,17.1812568 C5.90940101,17.1812568 5.91310613,17.1816685 5.91722292,17.1816685 L6.59443644,17.1816685 L6.59443644,9.58576175 L10.5523275,12.4835769 L11.8532361,13.4362043 L11.8664099,13.4460846 L12.0928338,13.6119916 L12.0932455,13.6119916 L13.0145852,12.9372482 L13.5888788,12.516923 L16.5175699,10.3724821 L17.4055636,9.7224395 L17.4055636,17.1816685 L18.0827771,17.1816685 C18.0868939,17.1816685 18.0910107,17.1812568 18.0951275,17.1812568 C18.1194166,17.1808451 18.1437057,17.1796101 18.1679948,17.1775517 C18.1745817,17.1767283 18.1815803,17.175905 18.1881671,17.1750816 C18.1910489,17.1746699 18.193519,17.1742582 18.1959891,17.1738466 C18.1976358,17.1738466 18.1988708,17.1734349 18.2001059,17.1734349 C18.2178081,17.1713765 18.2350987,17.1689064 18.2523892,17.165613 C18.2532126,17.1652013 18.2536243,17.1652013 18.2544476,17.1652013 C18.2593878,17.1639662 18.2647396,17.1627312 18.2696798,17.1619078 C18.2754433,17.1606728 18.2807951,17.1594378 18.286147,17.1582027 C18.3030258,17.1544976 18.319493,17.1503808 18.3355486,17.1454406 C18.3462522,17.1425589 18.3569559,17.1396771 18.3672479,17.1363837 C18.3853618,17.1302085 18.4030641,17.1236216 18.4203546,17.116623 C18.4215897,17.1162114 18.422413,17.1157997 18.4236481,17.115388 C18.430235,17.1125062 18.4372335,17.1104478 18.4438204,17.1075661 C18.4438204,17.1075661 18.4442321,17.1075661 18.4446437,17.1071544 C18.4693445,17.0964507 18.4936337,17.0849237 18.5170994,17.0721616 C18.5232746,17.0688682 18.5286265,17.0651631 18.5348017,17.0618696 C18.5525039,17.0515776 18.5702061,17.0412856 18.587085,17.0297586 C18.5957303,17.0244067 18.6035522,17.0182315 18.6117858,17.012468 C18.6257829,17.0025877 18.63978,16.9922957 18.6533655,16.981592 C18.6533655,16.981592 18.6533655,16.9811803 18.6537772,16.9811803 C18.6615991,16.9745935 18.6698327,16.9680066 18.6776546,16.9614197 C18.6776546,16.9614197 18.6780663,16.961008 18.6780663,16.961008 C18.6908284,16.9498927 18.7031788,16.9387773 18.7155292,16.9268386 C18.7192343,16.9235452 18.7225277,16.91984 18.7262328,16.9165466 C18.7303496,16.9128415 18.7340548,16.9091364 18.7377599,16.9054312 C18.7381716,16.9050196 18.7381716,16.9050196 18.7381716,16.9050196 C18.7513453,16.8914341 18.7641074,16.8770253 18.7764578,16.8626165 C18.7772811,16.8613815 18.7785162,16.8605581 18.7793395,16.8593231 C18.783868,16.8543829 18.7883965,16.8498544 18.7925133,16.8445026 C18.7925133,16.8445026 18.7925133,16.8445026 18.7925133,16.8445026 C18.8089805,16.8243303 18.8242127,16.8037463 18.8390331,16.7823389 C18.8390331,16.7823389 18.8390331,16.7819273 18.8390331,16.7819273 C18.84562,16.7728703 18.8509719,16.7634017 18.8571471,16.753933 C18.8571471,16.7535213 18.8575587,16.7531097 18.8575587,16.752698 C18.8657923,16.7399359 18.8736143,16.7271738 18.8810245,16.7140001 C18.8814362,16.7140001 18.8814362,16.7135884 18.8814362,16.7135884 C18.8826712,16.71153 18.8834946,16.7098833 18.8843179,16.7082365 C18.8896698,16.6983562 18.8950216,16.6884759 18.8999618,16.6781839 C18.906137,16.6662452 18.9119005,16.6543065 18.9172523,16.6423677 C18.9234275,16.629194 18.929191,16.6160202 18.9345429,16.6024348 C18.9390714,16.5913194 18.9427765,16.5797924 18.9468933,16.5678537 C18.94854,16.5637369 18.949775,16.5592084 18.9514218,16.5546799 C18.9551269,16.5447996 18.9584203,16.5349193 18.9617138,16.525039 C18.9617138,16.5246273 18.9617138,16.5242156 18.9617138,16.5242156 C18.9621254,16.5233922 18.9625371,16.5225689 18.9625371,16.5217455 C18.969124,16.4995148 18.9748875,16.4772841 18.9798277,16.4546417 C18.9798277,16.45423 18.9798277,16.4538183 18.9798277,16.4534067 C18.9814744,16.4464081 18.9822978,16.4394095 18.9835328,16.4328227 C18.9839445,16.4319993 18.9839445,16.4311759 18.9839445,16.4303526 C18.9876496,16.4105919 18.990943,16.3908313 18.9930014,16.370659 C18.9942365,16.3620137 18.9950598,16.3537801 18.9958832,16.3451348 C18.9983533,16.319199 18.9995883,16.2932632 19,16.2669156 C19,16.2652689 19,16.2636222 19,16.2623872 L19,8.55491516 L19,8.20334049 L19,7.92010468 C19,7.76119622 18.960067,7.6117564 18.8892581,7.48166554 Z" id="Shape" fill="#FFFFFF"></path>
                                    </g>
                                </g>
                            </g>
                        </g>
                    </g>
                    <g id="邮件" transform="translate(243.000000, 284.000000)"></g>
                </g>
            </g>
        </g>
    </g>
</svg>