<?xml version="1.0" encoding="UTF-8"?>
<svg width="24px" height="48px" viewBox="0 0 24 48" version="1.1" xmlns="http://www.w3.org/2000/svg" xmlns:xlink="http://www.w3.org/1999/xlink">
    <!-- Generator: Sketch 49 (51002) - http://www.bohemiancoding.com/sketch -->
    <title>instagram</title>
    <desc>Created with Sketch.</desc>
    <defs>
        <rect id="path-1" x="768" y="352" width="376" height="376" rx="8"></rect>
        <filter x="-17.8%" y="-10.9%" width="135.6%" height="135.6%" filterUnits="objectBoundingBox" id="filter-3">
            <feOffset dx="0" dy="26" in="SourceAlpha" result="shadowOffsetOuter1"></feOffset>
            <feGaussianBlur stdDeviation="18" in="shadowOffsetOuter1" result="shadowBlurOuter1"></feGaussianBlur>
            <feColorMatrix values="0 0 0 0 0.556862745   0 0 0 0 0.556862745   0 0 0 0 0.576470588  0 0 0 0.196133379 0" type="matrix" in="shadowBlurOuter1"></feColorMatrix>
        </filter>
    </defs>
    <g id="Page-1" stroke="none" stroke-width="1" fill="none" fill-rule="evenodd">
        <g id="Apple-TV" transform="translate(-912.000000, -648.000000)">
            <mask id="mask-2" fill="white">
                <use xlink:href="#path-1"></use>
            </mask>
            <g id="Mask">
                <use fill="black" fill-opacity="1" filter="url(#filter-3)" xlink:href="#path-1"></use>
                <use fill="#FFFFFF" fill-rule="evenodd" xlink:href="#path-1"></use>
            </g>
            <g id="Group-2" transform="translate(791.000000, 376.000000)">
                <g id="*Group-3">
                    <g id="text">
                        <g id="icon" transform="translate(1.000000, 272.000000)">
                            <g id="Group">
                                <g id="instagram" transform="translate(120.000000, 0.000000)">
                                    <g>
                                        <rect id="Rectangle" fill="#8E8E93" x="0" y="0" width="24" height="24" rx="12"></rect>
                                        <path d="M17.2021994,18.9860041 L6.79915508,18.9860041 C5.80950692,18.9860041 5,18.180109 5,17.1940727 L5,6.79283434 C5,5.80679803 5.80950692,5 6.79915508,5 L17.2021994,5 C18.191396,5 19,5.80679803 19,6.79283434 L19,17.1940727 C19,18.180109 18.191396,18.9860041 17.2021994,18.9860041 Z M12.0002257,8.99606566 C10.3437389,8.99606566 9.00058048,10.3365152 9.00058048,11.9898417 C9.00058048,13.6431681 10.3437389,14.9836177 12.0002257,14.9836177 C13.6567126,14.9836177 14.9994195,13.6431681 14.9994195,11.9898417 C14.9994195,10.3365152 13.6567126,8.99606566 12.0002257,8.99606566 Z M17.1900094,7.25424877 C17.1900094,6.96259151 17.0306363,6.80276694 16.7385275,6.80276694 L15.384082,6.80276694 C15.0910703,6.80276694 14.9326002,6.96259151 14.9326002,7.25424877 L14.9326002,8.60869425 C14.9326002,8.90035151 15.0910703,9.06017608 15.384082,9.06017608 L16.7385275,9.06017608 C17.0306363,9.06017608 17.1900094,8.90035151 17.1900094,8.60869425 L17.1900094,7.25424877 Z M17.6414912,10.8661034 L16.2242897,10.9889064 C16.3001387,11.30991 16.3488987,11.6408462 16.3488987,11.9844239 C16.3488987,14.3790835 14.4043665,16.3195524 12.005192,16.3195524 C9.60646909,16.3195524 7.66148538,14.3790835 7.66148538,11.9844239 C7.66148538,11.6412977 7.70573059,11.3090071 7.78112806,10.9889064 L6.35444548,10.8661034 L6.35444548,16.7353672 C6.35444548,17.0410203 6.95130446,17.6383308 7.25740914,17.6383308 L16.7385275,17.6383308 C17.0450837,17.6383308 17.6414912,17.0410203 17.6414912,16.7353672 L17.6414912,10.8661034 Z" id="Shape" fill="#FFFFFF"></path>
                                    </g>
                                    <g transform="translate(0.000000, 24.000000)">
                                        <rect id="Rectangle" fill="#457399" x="0" y="0" width="24" height="24" rx="12"></rect>
                                        <path d="M17.2021994,18.9860041 L6.79915508,18.9860041 C5.80950692,18.9860041 5,18.180109 5,17.1940727 L5,6.79283434 C5,5.80679803 5.80950692,5 6.79915508,5 L17.2021994,5 C18.191396,5 19,5.80679803 19,6.79283434 L19,17.1940727 C19,18.180109 18.191396,18.9860041 17.2021994,18.9860041 Z M12.0002257,8.99606566 C10.3437389,8.99606566 9.00058048,10.3365152 9.00058048,11.9898417 C9.00058048,13.6431681 10.3437389,14.9836177 12.0002257,14.9836177 C13.6567126,14.9836177 14.9994195,13.6431681 14.9994195,11.9898417 C14.9994195,10.3365152 13.6567126,8.99606566 12.0002257,8.99606566 Z M17.1900094,7.25424877 C17.1900094,6.96259151 17.0306363,6.80276694 16.7385275,6.80276694 L15.384082,6.80276694 C15.0910703,6.80276694 14.9326002,6.96259151 14.9326002,7.25424877 L14.9326002,8.60869425 C14.9326002,8.90035151 15.0910703,9.06017608 15.384082,9.06017608 L16.7385275,9.06017608 C17.0306363,9.06017608 17.1900094,8.90035151 17.1900094,8.60869425 L17.1900094,7.25424877 Z M17.6414912,10.8661034 L16.2242897,10.9889064 C16.3001387,11.30991 16.3488987,11.6408462 16.3488987,11.9844239 C16.3488987,14.3790835 14.4043665,16.3195524 12.005192,16.3195524 C9.60646909,16.3195524 7.66148538,14.3790835 7.66148538,11.9844239 C7.66148538,11.6412977 7.70573059,11.3090071 7.78112806,10.9889064 L6.35444548,10.8661034 L6.35444548,16.7353672 C6.35444548,17.0410203 6.95130446,17.6383308 7.25740914,17.6383308 L16.7385275,17.6383308 C17.0450837,17.6383308 17.6414912,17.0410203 17.6414912,16.7353672 L17.6414912,10.8661034 Z" id="Shape" fill="#FFFFFF"></path>
                                    </g>
                                </g>
                            </g>
                        </g>
                    </g>
                </g>
            </g>
        </g>
    </g>
</svg>