<?xml version="1.0" encoding="UTF-8"?>
<svg width="24px" height="48px" viewBox="0 0 24 48" version="1.1" xmlns="http://www.w3.org/2000/svg" xmlns:xlink="http://www.w3.org/1999/xlink">
    <!-- Generator: Sketch 49 (51002) - http://www.bohemiancoding.com/sketch -->
    <title>wechat</title>
    <desc>Created with Sketch.</desc>
    <defs>
        <rect id="path-1" x="768" y="352" width="376" height="376" rx="8"></rect>
        <filter x="-17.8%" y="-10.9%" width="135.6%" height="135.6%" filterUnits="objectBoundingBox" id="filter-3">
            <feOffset dx="0" dy="26" in="SourceAlpha" result="shadowOffsetOuter1"></feOffset>
            <feGaussianBlur stdDeviation="18" in="shadowOffsetOuter1" result="shadowBlurOuter1"></feGaussianBlur>
            <feColorMatrix values="0 0 0 0 0.556862745   0 0 0 0 0.556862745   0 0 0 0 0.576470588  0 0 0 0.196133379 0" type="matrix" in="shadowBlurOuter1"></feColorMatrix>
        </filter>
    </defs>
    <g id="Page-1" stroke="none" stroke-width="1" fill="none" fill-rule="evenodd">
        <g id="Apple-TV" transform="translate(-992.000000, -648.000000)">
            <mask id="mask-2" fill="white">
                <use xlink:href="#path-1"></use>
            </mask>
            <g id="Mask">
                <use fill="black" fill-opacity="1" filter="url(#filter-3)" xlink:href="#path-1"></use>
                <use fill="#FFFFFF" fill-rule="evenodd" xlink:href="#path-1"></use>
            </g>
            <g id="Group-2" transform="translate(791.000000, 376.000000)">
                <g id="*Group-3">
                    <g id="text">
                        <g id="icon" transform="translate(1.000000, 272.000000)">
                            <g id="Group">
                                <g id="wechat" transform="translate(200.000000, 0.000000)">
                                    <g>
                                        <rect id="Rectangle" fill="#8E8E93" x="0" y="0" width="24" height="24" rx="12"></rect>
                                        <path d="M17.2643377,16.7901198 L17.6372117,17.9833167 L16.2778304,17.2663386 C15.7819268,17.3859611 15.2841305,17.5052051 14.7908769,17.5052051 C12.4328746,17.5052051 10.5760755,15.9535192 10.5760755,14.0429657 C10.5760755,12.1346835 12.4328746,10.5792121 14.7908769,10.5792121 C17.0175216,10.5792121 19,12.1346835 19,14.0429657 C19,15.1188113 18.2587946,16.0716275 17.2643377,16.7901198 Z M13.4246816,12.4909012 C13.1778655,12.4909012 12.9291566,12.7305248 12.9291566,12.9678771 C12.9291566,13.2093935 13.1778655,13.4456101 13.4246816,13.4456101 C13.7994484,13.4456101 14.0443717,13.2093935 14.0443717,12.9678771 C14.0443717,12.7305248 13.7994484,12.4909012 13.4246816,12.4909012 Z M16.1502582,12.4909012 C15.9053349,12.4909012 15.6577617,12.7305248 15.6577617,12.9678771 C15.6577617,13.2093935 15.9053349,13.4456101 16.1502582,13.4456101 C16.521618,13.4456101 16.7703269,13.2093935 16.7703269,12.9678771 C16.7703269,12.7305248 16.521618,12.4909012 16.1502582,12.4909012 Z M10.2645269,14.1001271 C10.2645269,14.4465024 10.3205527,14.7807641 10.4174621,15.0998837 C10.2645269,15.1116189 10.1104562,15.1188113 9.95487116,15.1188113 C9.33631669,15.1188113 8.83889895,14.9972961 8.21883027,14.8795663 L6.48695347,15.7157883 L6.98247844,14.2806965 C5.74158397,13.4456101 5,12.3690074 5,11.0588378 C5,8.7882811 7.23080875,7 9.95487116,7 C12.3916124,7 14.5258903,8.42865641 14.95479,10.350945 C14.7969337,10.3342887 14.6379418,10.3233107 14.4774356,10.3233107 C12.1232188,10.3233107 10.2645269,12.015061 10.2645269,14.1001271 Z M8.34488819,9.02941892 C7.97352838,9.02941892 7.59876159,9.26563556 7.59876159,9.6248817 C7.59876159,9.98261363 7.97352838,10.2222372 8.34488819,10.2222372 C8.71662656,10.2222372 8.96344266,9.98261363 8.96344266,9.6248817 C8.96344266,9.26563556 8.71662656,9.02941892 8.34488819,9.02941892 Z M11.8128059,9.02941892 C11.4414461,9.02941892 11.0693292,9.26563556 11.0693292,9.6248817 C11.0693292,9.98261363 11.4414461,10.2222372 11.8128059,10.2222372 C12.1860585,10.2222372 12.4328746,9.98261363 12.4328746,9.6248817 C12.4328746,9.26563556 12.1860585,9.02941892 11.8128059,9.02941892 Z" id="Shape" fill="#FFFFFF"></path>
                                    </g>
                                    <g transform="translate(0.000000, 24.000000)">
                                        <rect id="Rectangle" fill="#51C332" x="0" y="0" width="24" height="24" rx="12"></rect>
                                        <path d="M17.2643377,16.7901198 L17.6372117,17.9833167 L16.2778304,17.2663386 C15.7819268,17.3859611 15.2841305,17.5052051 14.7908769,17.5052051 C12.4328746,17.5052051 10.5760755,15.9535192 10.5760755,14.0429657 C10.5760755,12.1346835 12.4328746,10.5792121 14.7908769,10.5792121 C17.0175216,10.5792121 19,12.1346835 19,14.0429657 C19,15.1188113 18.2587946,16.0716275 17.2643377,16.7901198 Z M13.4246816,12.4909012 C13.1778655,12.4909012 12.9291566,12.7305248 12.9291566,12.9678771 C12.9291566,13.2093935 13.1778655,13.4456101 13.4246816,13.4456101 C13.7994484,13.4456101 14.0443717,13.2093935 14.0443717,12.9678771 C14.0443717,12.7305248 13.7994484,12.4909012 13.4246816,12.4909012 Z M16.1502582,12.4909012 C15.9053349,12.4909012 15.6577617,12.7305248 15.6577617,12.9678771 C15.6577617,13.2093935 15.9053349,13.4456101 16.1502582,13.4456101 C16.521618,13.4456101 16.7703269,13.2093935 16.7703269,12.9678771 C16.7703269,12.7305248 16.521618,12.4909012 16.1502582,12.4909012 Z M10.2645269,14.1001271 C10.2645269,14.4465024 10.3205527,14.7807641 10.4174621,15.0998837 C10.2645269,15.1116189 10.1104562,15.1188113 9.95487116,15.1188113 C9.33631669,15.1188113 8.83889895,14.9972961 8.21883027,14.8795663 L6.48695347,15.7157883 L6.98247844,14.2806965 C5.74158397,13.4456101 5,12.3690074 5,11.0588378 C5,8.7882811 7.23080875,7 9.95487116,7 C12.3916124,7 14.5258903,8.42865641 14.95479,10.350945 C14.7969337,10.3342887 14.6379418,10.3233107 14.4774356,10.3233107 C12.1232188,10.3233107 10.2645269,12.015061 10.2645269,14.1001271 Z M8.34488819,9.02941892 C7.97352838,9.02941892 7.59876159,9.26563556 7.59876159,9.6248817 C7.59876159,9.98261363 7.97352838,10.2222372 8.34488819,10.2222372 C8.71662656,10.2222372 8.96344266,9.98261363 8.96344266,9.6248817 C8.96344266,9.26563556 8.71662656,9.02941892 8.34488819,9.02941892 Z M11.8128059,9.02941892 C11.4414461,9.02941892 11.0693292,9.26563556 11.0693292,9.6248817 C11.0693292,9.98261363 11.4414461,10.2222372 11.8128059,10.2222372 C12.1860585,10.2222372 12.4328746,9.98261363 12.4328746,9.6248817 C12.4328746,9.26563556 12.1860585,9.02941892 11.8128059,9.02941892 Z" id="Shape" fill="#FFFFFF"></path>
                                    </g>
                                </g>
                            </g>
                        </g>
                    </g>
                </g>
            </g>
        </g>
    </g>
</svg>