<?xml version="1.0" encoding="UTF-8"?>
<svg width="24px" height="48px" viewBox="0 0 24 48" version="1.1" xmlns="http://www.w3.org/2000/svg" xmlns:xlink="http://www.w3.org/1999/xlink">
    <!-- Generator: Sketch 49 (51002) - http://www.bohemiancoding.com/sketch -->
    <title>weibo</title>
    <desc>Created with Sketch.</desc>
    <defs>
        <rect id="path-1" x="768" y="352" width="376" height="376" rx="8"></rect>
        <filter x="-17.8%" y="-10.9%" width="135.6%" height="135.6%" filterUnits="objectBoundingBox" id="filter-3">
            <feOffset dx="0" dy="26" in="SourceAlpha" result="shadowOffsetOuter1"></feOffset>
            <feGaussianBlur stdDeviation="18" in="shadowOffsetOuter1" result="shadowBlurOuter1"></feGaussianBlur>
            <feColorMatrix values="0 0 0 0 0.556862745   0 0 0 0 0.556862745   0 0 0 0 0.576470588  0 0 0 0.196133379 0" type="matrix" in="shadowBlurOuter1"></feColorMatrix>
        </filter>
    </defs>
    <g id="Page-1" stroke="none" stroke-width="1" fill="none" fill-rule="evenodd">
        <g id="Apple-TV" transform="translate(-952.000000, -648.000000)">
            <mask id="mask-2" fill="white">
                <use xlink:href="#path-1"></use>
            </mask>
            <g id="Mask">
                <use fill="black" fill-opacity="1" filter="url(#filter-3)" xlink:href="#path-1"></use>
                <use fill="#FFFFFF" fill-rule="evenodd" xlink:href="#path-1"></use>
            </g>
            <g id="Group-2" transform="translate(791.000000, 376.000000)">
                <g id="*Group-3">
                    <g id="text">
                        <g id="icon" transform="translate(1.000000, 272.000000)">
                            <g id="Group">
                                <g id="weibo" transform="translate(160.000000, 0.000000)">
                                    <g>
                                        <rect id="Rectangle" fill="#8E8E93" x="0" y="0" width="24" height="24" rx="12"></rect>
                                        <path d="M18.820467,10.8509444 C18.820467,10.8517008 18.820467,10.8524573 18.820467,10.8532137 C18.7289407,11.1346002 18.4267527,11.288909 18.1453662,11.1977609 C17.8632232,11.1066129 17.7089144,10.8044249 17.8000625,10.5222819 L17.7996843,10.5222819 C18.079558,9.655808 17.9021786,8.66755119 17.2490138,7.94290517 C16.5954709,7.21825916 15.6317976,6.94178931 14.7411184,7.13089317 C14.4514112,7.19254103 14.1666208,7.00759745 14.104973,6.71789033 C14.0429469,6.42893962 14.2275123,6.14377099 14.5172194,6.08136671 L14.5175976,6.08136671 C15.7694652,5.81510847 17.1257181,6.20390602 18.0451411,7.22431048 C18.9649423,8.24320211 19.2130466,9.63235912 18.820467,10.8509444 Z M15.1072234,8.84644345 L15.1072234,8.84606524 C14.858741,8.90014895 14.6132841,8.74054528 14.5599569,8.49168459 C14.5066296,8.24206749 14.6654768,7.99661067 14.9147157,7.94366159 C15.5247648,7.81355813 16.1854937,8.00228379 16.6332917,8.49924875 C17.0814678,8.9958355 17.2017379,9.67244914 17.0099866,10.2662353 C16.9316976,10.5090446 16.6714906,10.6414173 16.4290595,10.5638848 C16.1862501,10.4852176 16.0538774,10.2246324 16.1321664,9.98220127 L16.13141,9.98220127 C16.2255837,9.69173773 16.1665833,9.36080596 15.947601,9.1179966 C15.728997,8.87556544 15.4056293,8.78366096 15.1072234,8.84644345 Z M15.292167,9.71026991 C15.5345982,10.0567082 15.5111493,10.5423269 15.2876285,11.1051 C15.1843778,11.3641723 15.3197762,11.4042623 15.5168224,11.463641 C16.3197574,11.7125016 17.2138405,12.3153648 17.2138405,13.3769939 C17.2138405,15.1345252 14.6809833,17.3481751 10.8731879,17.3481751 C7.9689307,17.3481751 5,15.9397295 5,13.6228289 C5,12.4118077 5.76700528,11.0113045 7.08732848,9.68984669 C8.85091113,7.92588583 10.9072266,7.12219439 11.6806614,7.89638562 C12.0218048,8.237529 12.0547088,8.82828948 11.8353484,9.5336469 C11.7211296,9.88878396 12.1685494,9.69211594 12.1685494,9.69287235 C13.5940143,9.09568234 14.8375613,9.06050902 15.292167,9.71026991 Z M14.8054137,13.3452244 C14.6552652,11.8233165 12.6545463,10.7749247 10.3365111,11.0041186 C8.01923233,11.2336907 6.261701,12.6534825 6.41222767,14.1757686 C6.56275435,15.6984329 8.56347326,16.7464466 10.8811302,16.5176309 C13.1991654,16.288437 14.9555621,14.868267 14.8054137,13.3452244 Z M9.382293,15.8637097 C8.26809302,15.503656 7.79646798,14.4030715 8.28435595,13.4114108 C8.76354515,12.4390387 10.0097396,11.8891247 11.1125934,12.1761843 C12.2540243,12.4711864 12.8364642,13.5487002 12.3701341,14.5948228 C11.8969962,15.6655289 10.536583,16.2362443 9.382293,15.8637097 Z M10.0116307,13.7794069 C9.65271153,13.6288802 9.18902885,13.7835672 8.96739912,14.1311401 C8.74312193,14.4802258 8.84864189,14.8958761 9.20491357,15.0581272 C9.56648016,15.223404 10.0464258,15.0664478 10.270703,14.7086633 C10.4908199,14.3470967 10.3747101,13.9340939 10.0116307,13.7794069 Z M10.8962586,13.4125454 C10.7585909,13.3577053 10.5865064,13.4238916 10.50557,13.5596682 C10.427281,13.695823 10.4703966,13.8508882 10.6084425,13.9076193 C10.7487575,13.9654851 10.928028,13.8989205 11.0089645,13.7601183 C11.086497,13.6205597 11.0361954,13.4636034 10.8962586,13.4125454 Z" id="Shape" fill="#FFFFFF"></path>
                                    </g>
                                    <g transform="translate(0.000000, 24.000000)">
                                        <rect id="Rectangle" fill="#E6162D" x="0" y="0" width="24" height="24" rx="12"></rect>
                                        <path d="M18.820467,10.8509444 C18.820467,10.8517008 18.820467,10.8524573 18.820467,10.8532137 C18.7289407,11.1346002 18.4267527,11.288909 18.1453662,11.1977609 C17.8632232,11.1066129 17.7089144,10.8044249 17.8000625,10.5222819 L17.7996843,10.5222819 C18.079558,9.655808 17.9021786,8.66755119 17.2490138,7.94290517 C16.5954709,7.21825916 15.6317976,6.94178931 14.7411184,7.13089317 C14.4514112,7.19254103 14.1666208,7.00759745 14.104973,6.71789033 C14.0429469,6.42893962 14.2275123,6.14377099 14.5172194,6.08136671 L14.5175976,6.08136671 C15.7694652,5.81510847 17.1257181,6.20390602 18.0451411,7.22431048 C18.9649423,8.24320211 19.2130466,9.63235912 18.820467,10.8509444 Z M15.1072234,8.84644345 L15.1072234,8.84606524 C14.858741,8.90014895 14.6132841,8.74054528 14.5599569,8.49168459 C14.5066296,8.24206749 14.6654768,7.99661067 14.9147157,7.94366159 C15.5247648,7.81355813 16.1854937,8.00228379 16.6332917,8.49924875 C17.0814678,8.9958355 17.2017379,9.67244914 17.0099866,10.2662353 C16.9316976,10.5090446 16.6714906,10.6414173 16.4290595,10.5638848 C16.1862501,10.4852176 16.0538774,10.2246324 16.1321664,9.98220127 L16.13141,9.98220127 C16.2255837,9.69173773 16.1665833,9.36080596 15.947601,9.1179966 C15.728997,8.87556544 15.4056293,8.78366096 15.1072234,8.84644345 Z M15.292167,9.71026991 C15.5345982,10.0567082 15.5111493,10.5423269 15.2876285,11.1051 C15.1843778,11.3641723 15.3197762,11.4042623 15.5168224,11.463641 C16.3197574,11.7125016 17.2138405,12.3153648 17.2138405,13.3769939 C17.2138405,15.1345252 14.6809833,17.3481751 10.8731879,17.3481751 C7.9689307,17.3481751 5,15.9397295 5,13.6228289 C5,12.4118077 5.76700528,11.0113045 7.08732848,9.68984669 C8.85091113,7.92588583 10.9072266,7.12219439 11.6806614,7.89638562 C12.0218048,8.237529 12.0547088,8.82828948 11.8353484,9.5336469 C11.7211296,9.88878396 12.1685494,9.69211594 12.1685494,9.69287235 C13.5940143,9.09568234 14.8375613,9.06050902 15.292167,9.71026991 Z M14.8054137,13.3452244 C14.6552652,11.8233165 12.6545463,10.7749247 10.3365111,11.0041186 C8.01923233,11.2336907 6.261701,12.6534825 6.41222767,14.1757686 C6.56275435,15.6984329 8.56347326,16.7464466 10.8811302,16.5176309 C13.1991654,16.288437 14.9555621,14.868267 14.8054137,13.3452244 Z M9.382293,15.8637097 C8.26809302,15.503656 7.79646798,14.4030715 8.28435595,13.4114108 C8.76354515,12.4390387 10.0097396,11.8891247 11.1125934,12.1761843 C12.2540243,12.4711864 12.8364642,13.5487002 12.3701341,14.5948228 C11.8969962,15.6655289 10.536583,16.2362443 9.382293,15.8637097 Z M10.0116307,13.7794069 C9.65271153,13.6288802 9.18902885,13.7835672 8.96739912,14.1311401 C8.74312193,14.4802258 8.84864189,14.8958761 9.20491357,15.0581272 C9.56648016,15.223404 10.0464258,15.0664478 10.270703,14.7086633 C10.4908199,14.3470967 10.3747101,13.9340939 10.0116307,13.7794069 Z M10.8962586,13.4125454 C10.7585909,13.3577053 10.5865064,13.4238916 10.50557,13.5596682 C10.427281,13.695823 10.4703966,13.8508882 10.6084425,13.9076193 C10.7487575,13.9654851 10.928028,13.8989205 11.0089645,13.7601183 C11.086497,13.6205597 11.0361954,13.4636034 10.8962586,13.4125454 Z" id="Shape" fill="#FFFFFF"></path>
                                    </g>
                                </g>
                            </g>
                        </g>
                    </g>
                </g>
            </g>
        </g>
    </g>
</svg>