<?xml version="1.0" encoding="UTF-8"?>
<svg width="24px" height="48px" viewBox="0 0 24 48" version="1.1" xmlns="http://www.w3.org/2000/svg" xmlns:xlink="http://www.w3.org/1999/xlink">
    <!-- Generator: Sketch 49 (51002) - http://www.bohemiancoding.com/sketch -->
    <title>zcool</title>
    <desc>Created with Sketch.</desc>
    <defs>
        <rect id="path-1" x="768" y="352" width="376" height="376" rx="8"></rect>
        <filter x="-17.8%" y="-10.9%" width="135.6%" height="135.6%" filterUnits="objectBoundingBox" id="filter-3">
            <feOffset dx="0" dy="26" in="SourceAlpha" result="shadowOffsetOuter1"></feOffset>
            <feGaussianBlur stdDeviation="18" in="shadowOffsetOuter1" result="shadowBlurOuter1"></feGaussianBlur>
            <feColorMatrix values="0 0 0 0 0.556862745   0 0 0 0 0.556862745   0 0 0 0 0.576470588  0 0 0 0.196133379 0" type="matrix" in="shadowBlurOuter1"></feColorMatrix>
        </filter>
    </defs>
    <g id="Page-1" stroke="none" stroke-width="1" fill="none" fill-rule="evenodd">
        <g id="Apple-TV" transform="translate(-832.000000, -648.000000)">
            <mask id="mask-2" fill="white">
                <use xlink:href="#path-1"></use>
            </mask>
            <g id="Mask">
                <use fill="black" fill-opacity="1" filter="url(#filter-3)" xlink:href="#path-1"></use>
                <use fill="#FFFFFF" fill-rule="evenodd" xlink:href="#path-1"></use>
            </g>
            <g id="Group-2" transform="translate(791.000000, 376.000000)">
                <g id="*Group-3">
                    <g id="text">
                        <g id="icon" transform="translate(1.000000, 272.000000)">
                            <g id="Group">
                                <g id="zcool" transform="translate(40.000000, 0.000000)">
                                    <g>
                                        <rect id="Rectangle" fill="#8E8E93" x="0" y="0" width="24" height="24" rx="12"></rect>
                                        <g transform="translate(5.000000, 5.000000)" fill="#FFFFFF" fill-rule="nonzero" id="Shape">
                                            <path d="M13.3541638,6.40338569 C12.957989,6.63289478 12.3919231,6.74702066 11.9191414,6.80352783 C12.6687958,6.13714057 13.3967368,5.37811145 13.6910534,4.42317504 C14.0902778,3.12770145 14.1022846,1.92661905 13.7288515,0.644065017 C13.6949221,0.530431138 13.6018993,0.446627064 13.488348,0.431101717 C13.383998,0.411913699 13.2747511,0.462808411 13.2105343,0.557819163 C12.2200801,2.03278181 10.9104765,2.97365064 9.4790788,3.25166733 C9.90681295,2.35163453 10.3785665,1.33572652 10.2769873,0.273716243 C10.2651024,0.152119246 10.1859859,0.0525529356 10.079597,0.0156346806 C10.0546248,0.0062137833 10.0215144,0 9.98690528,0 C9.9054014,0 9.83177432,0.0348773643 9.77867569,0.0911476366 C8.26110384,1.70700463 7.04994266,2.0480156 5.58717725,2.07449251 C3.971982,2.10344765 2.42959478,2.88217501 1.35584177,4.21104997 C0.290889166,5.5285178 -0.180463587,7.22775976 0.0626539171,8.87337367 C0.452955885,11.521156 2.34272353,13.5028062 4.87683708,13.9214622 C5.19668359,13.9741973 5.5136373,14 5.82567673,14 C7.9070142,14 9.77477214,12.8490288 10.8420251,10.8494114 C10.9637668,10.6219068 11.1635619,10.3987755 11.38995,10.2362513 C12.4203109,9.49916178 13.1657481,8.54500893 13.6044261,7.39959547 C13.6651924,7.24124421 13.7095778,7.04619337 13.7488398,6.87410255 L13.7789005,6.74434199 C13.7845642,6.72196509 13.7878229,6.69625351 13.7878229,6.66972193 C13.7878229,6.57174095 13.7434898,6.48462043 13.6745505,6.42891505 C13.6251114,6.3891359 13.5630033,6.36542877 13.4957717,6.36542877 C13.4439278,6.36542877 13.3951335,6.37949634 13.3527696,6.40409636 L13.3541638,6.40338569 Z M0.660958933,8.42306571 C0.905435707,9.22712198 2.40887463,9.49637377 2.40887463,9.49637377 C1.1541297,10.9063013 0.660958933,8.42306571 0.660958933,8.42306571 Z M4.29113145,9.496392 C4.29113145,9.496392 7.359037,9.12551478 8.58138602,8.0203178 C8.58138602,8.0203178 6.8010047,12.2652976 4.29113145,9.496392 Z"></path>
                                        </g>
                                    </g>
                                    <g transform="translate(0.000000, 24.000000)">
                                        <rect id="Rectangle" fill="#FFA700" x="0" y="0" width="24" height="24" rx="12"></rect>
                                        <g transform="translate(5.000000, 5.000000)" fill="#FFFFFF" fill-rule="nonzero" id="Shape">
                                            <path d="M13.3541638,6.40338569 C12.957989,6.63289478 12.3919231,6.74702066 11.9191414,6.80352783 C12.6687958,6.13714057 13.3967368,5.37811145 13.6910534,4.42317504 C14.0902778,3.12770145 14.1022846,1.92661905 13.7288515,0.644065017 C13.6949221,0.530431138 13.6018993,0.446627064 13.488348,0.431101717 C13.383998,0.411913699 13.2747511,0.462808411 13.2105343,0.557819163 C12.2200801,2.03278181 10.9104765,2.97365064 9.4790788,3.25166733 C9.90681295,2.35163453 10.3785665,1.33572652 10.2769873,0.273716243 C10.2651024,0.152119246 10.1859859,0.0525529356 10.079597,0.0156346806 C10.0546248,0.0062137833 10.0215144,0 9.98690528,0 C9.9054014,0 9.83177432,0.0348773643 9.77867569,0.0911476366 C8.26110384,1.70700463 7.04994266,2.0480156 5.58717725,2.07449251 C3.971982,2.10344765 2.42959478,2.88217501 1.35584177,4.21104997 C0.290889166,5.5285178 -0.180463587,7.22775976 0.0626539171,8.87337367 C0.452955885,11.521156 2.34272353,13.5028062 4.87683708,13.9214622 C5.19668359,13.9741973 5.5136373,14 5.82567673,14 C7.9070142,14 9.77477214,12.8490288 10.8420251,10.8494114 C10.9637668,10.6219068 11.1635619,10.3987755 11.38995,10.2362513 C12.4203109,9.49916178 13.1657481,8.54500893 13.6044261,7.39959547 C13.6651924,7.24124421 13.7095778,7.04619337 13.7488398,6.87410255 L13.7789005,6.74434199 C13.7845642,6.72196509 13.7878229,6.69625351 13.7878229,6.66972193 C13.7878229,6.57174095 13.7434898,6.48462043 13.6745505,6.42891505 C13.6251114,6.3891359 13.5630033,6.36542877 13.4957717,6.36542877 C13.4439278,6.36542877 13.3951335,6.37949634 13.3527696,6.40409636 L13.3541638,6.40338569 Z M0.660958933,8.42306571 C0.905435707,9.22712198 2.40887463,9.49637377 2.40887463,9.49637377 C1.1541297,10.9063013 0.660958933,8.42306571 0.660958933,8.42306571 Z M4.29113145,9.496392 C4.29113145,9.496392 7.359037,9.12551478 8.58138602,8.0203178 C8.58138602,8.0203178 6.8010047,12.2652976 4.29113145,9.496392 Z"></path>
                                        </g>
                                    </g>
                                </g>
                            </g>
                        </g>
                    </g>
                </g>
            </g>
        </g>
    </g>
</svg>